<mxfile host="drawio-plugin" agent="Mozilla/5.0 (Windows NT 10.0; Win64; x64) AppleWebKit/537.36 (KHTML, like Gecko) Chrome/122.0.0.0 Safari/537.36" modified="2025-03-18T07:05:55.006Z" version="22.1.22" etag="2nyEXwMMnMeC_3uhSDNo" type="embed">
  <diagram name="Page-1" id="6133507b-19e7-1e82-6fc7-422aa6c4b21f">
    <mxGraphModel dx="2771" dy="1970" grid="1" gridSize="10" guides="1" tooltips="1" connect="1" arrows="1" fold="1" page="1" pageScale="1" pageWidth="1100" pageHeight="850" background="none" math="0" shadow="0">
      <root>
        <mxCell id="0" />
        <mxCell id="1" parent="0" />
        <mxCell id="1vB-7IkMYXD6WmxoZs2r-31" style="edgeStyle=orthogonalEdgeStyle;rounded=0;orthogonalLoop=1;jettySize=auto;html=1;entryX=0.5;entryY=0;entryDx=0;entryDy=0;endArrow=block;endFill=0;dashed=1;" parent="1" source="1vB-7IkMYXD6WmxoZs2r-3" target="1vB-7IkMYXD6WmxoZs2r-27" edge="1">
          <mxGeometry relative="1" as="geometry" />
        </mxCell>
        <mxCell id="1vB-7IkMYXD6WmxoZs2r-3" value="PlantillaC" style="html=1;whiteSpace=wrap;" parent="1" vertex="1">
          <mxGeometry x="170" y="120" width="110" height="50" as="geometry" />
        </mxCell>
        <mxCell id="1vB-7IkMYXD6WmxoZs2r-32" style="edgeStyle=orthogonalEdgeStyle;rounded=0;orthogonalLoop=1;jettySize=auto;html=1;endArrow=block;endFill=0;dashed=1;" parent="1" source="1vB-7IkMYXD6WmxoZs2r-4" target="1vB-7IkMYXD6WmxoZs2r-27" edge="1">
          <mxGeometry relative="1" as="geometry" />
        </mxCell>
        <mxCell id="1vB-7IkMYXD6WmxoZs2r-4" value="PlantillaD" style="html=1;whiteSpace=wrap;" parent="1" vertex="1">
          <mxGeometry x="320" y="120" width="110" height="50" as="geometry" />
        </mxCell>
        <mxCell id="1vB-7IkMYXD6WmxoZs2r-6" value="TemplateConstructor" style="swimlane;fontStyle=1;align=center;verticalAlign=top;childLayout=stackLayout;horizontal=1;startSize=26;horizontalStack=0;resizeParent=1;resizeParentMax=0;resizeLast=0;collapsible=1;marginBottom=0;whiteSpace=wrap;html=1;" parent="1" vertex="1">
          <mxGeometry x="810" y="-240" width="200" height="112" as="geometry" />
        </mxCell>
        <mxCell id="1vB-7IkMYXD6WmxoZs2r-7" value="+ field: type" style="text;strokeColor=none;fillColor=none;align=left;verticalAlign=top;spacingLeft=4;spacingRight=4;overflow=hidden;rotatable=0;points=[[0,0.5],[1,0.5]];portConstraint=eastwest;whiteSpace=wrap;html=1;" parent="1vB-7IkMYXD6WmxoZs2r-6" vertex="1">
          <mxGeometry y="26" width="200" height="26" as="geometry" />
        </mxCell>
        <mxCell id="1vB-7IkMYXD6WmxoZs2r-8" value="" style="line;strokeWidth=1;fillColor=none;align=left;verticalAlign=middle;spacingTop=-1;spacingLeft=3;spacingRight=3;rotatable=0;labelPosition=right;points=[];portConstraint=eastwest;strokeColor=inherit;" parent="1vB-7IkMYXD6WmxoZs2r-6" vertex="1">
          <mxGeometry y="52" width="200" height="8" as="geometry" />
        </mxCell>
        <mxCell id="1vB-7IkMYXD6WmxoZs2r-9" value="+ buildTemplate(): Template" style="text;strokeColor=none;fillColor=none;align=left;verticalAlign=top;spacingLeft=4;spacingRight=4;overflow=hidden;rotatable=0;points=[[0,0.5],[1,0.5]];portConstraint=eastwest;whiteSpace=wrap;html=1;" parent="1vB-7IkMYXD6WmxoZs2r-6" vertex="1">
          <mxGeometry y="60" width="200" height="26" as="geometry" />
        </mxCell>
        <mxCell id="1vB-7IkMYXD6WmxoZs2r-25" value="+ getInformation(): Map&amp;lt;&amp;gt;" style="text;strokeColor=none;fillColor=none;align=left;verticalAlign=top;spacingLeft=4;spacingRight=4;overflow=hidden;rotatable=0;points=[[0,0.5],[1,0.5]];portConstraint=eastwest;whiteSpace=wrap;html=1;" parent="1vB-7IkMYXD6WmxoZs2r-6" vertex="1">
          <mxGeometry y="86" width="200" height="26" as="geometry" />
        </mxCell>
        <mxCell id="1vB-7IkMYXD6WmxoZs2r-16" value="TempalteConstructorA" style="swimlane;fontStyle=1;align=center;verticalAlign=top;childLayout=stackLayout;horizontal=1;startSize=26;horizontalStack=0;resizeParent=1;resizeParentMax=0;resizeLast=0;collapsible=1;marginBottom=0;whiteSpace=wrap;html=1;" parent="1" vertex="1">
          <mxGeometry x="670" y="-111" width="200" height="86" as="geometry" />
        </mxCell>
        <mxCell id="1vB-7IkMYXD6WmxoZs2r-17" value="+ field: type" style="text;strokeColor=none;fillColor=none;align=left;verticalAlign=top;spacingLeft=4;spacingRight=4;overflow=hidden;rotatable=0;points=[[0,0.5],[1,0.5]];portConstraint=eastwest;whiteSpace=wrap;html=1;" parent="1vB-7IkMYXD6WmxoZs2r-16" vertex="1">
          <mxGeometry y="26" width="200" height="26" as="geometry" />
        </mxCell>
        <mxCell id="1vB-7IkMYXD6WmxoZs2r-18" value="" style="line;strokeWidth=1;fillColor=none;align=left;verticalAlign=middle;spacingTop=-1;spacingLeft=3;spacingRight=3;rotatable=0;labelPosition=right;points=[];portConstraint=eastwest;strokeColor=inherit;" parent="1vB-7IkMYXD6WmxoZs2r-16" vertex="1">
          <mxGeometry y="52" width="200" height="8" as="geometry" />
        </mxCell>
        <mxCell id="1vB-7IkMYXD6WmxoZs2r-19" value="+ buildTemplate(): Plantilla" style="text;strokeColor=none;fillColor=none;align=left;verticalAlign=top;spacingLeft=4;spacingRight=4;overflow=hidden;rotatable=0;points=[[0,0.5],[1,0.5]];portConstraint=eastwest;whiteSpace=wrap;html=1;" parent="1vB-7IkMYXD6WmxoZs2r-16" vertex="1">
          <mxGeometry y="60" width="200" height="26" as="geometry" />
        </mxCell>
        <mxCell id="1vB-7IkMYXD6WmxoZs2r-20" value="TempalteConstructorB" style="swimlane;fontStyle=1;align=center;verticalAlign=top;childLayout=stackLayout;horizontal=1;startSize=26;horizontalStack=0;resizeParent=1;resizeParentMax=0;resizeLast=0;collapsible=1;marginBottom=0;whiteSpace=wrap;html=1;" parent="1" vertex="1">
          <mxGeometry x="920" y="-112" width="200" height="86" as="geometry" />
        </mxCell>
        <mxCell id="1vB-7IkMYXD6WmxoZs2r-21" value="+ field: type" style="text;strokeColor=none;fillColor=none;align=left;verticalAlign=top;spacingLeft=4;spacingRight=4;overflow=hidden;rotatable=0;points=[[0,0.5],[1,0.5]];portConstraint=eastwest;whiteSpace=wrap;html=1;" parent="1vB-7IkMYXD6WmxoZs2r-20" vertex="1">
          <mxGeometry y="26" width="200" height="26" as="geometry" />
        </mxCell>
        <mxCell id="1vB-7IkMYXD6WmxoZs2r-22" value="" style="line;strokeWidth=1;fillColor=none;align=left;verticalAlign=middle;spacingTop=-1;spacingLeft=3;spacingRight=3;rotatable=0;labelPosition=right;points=[];portConstraint=eastwest;strokeColor=inherit;" parent="1vB-7IkMYXD6WmxoZs2r-20" vertex="1">
          <mxGeometry y="52" width="200" height="8" as="geometry" />
        </mxCell>
        <mxCell id="1vB-7IkMYXD6WmxoZs2r-23" value="+ buildTemplate(): Plantilla" style="text;strokeColor=none;fillColor=none;align=left;verticalAlign=top;spacingLeft=4;spacingRight=4;overflow=hidden;rotatable=0;points=[[0,0.5],[1,0.5]];portConstraint=eastwest;whiteSpace=wrap;html=1;" parent="1vB-7IkMYXD6WmxoZs2r-20" vertex="1">
          <mxGeometry y="60" width="200" height="26" as="geometry" />
        </mxCell>
        <mxCell id="1vB-7IkMYXD6WmxoZs2r-27" value="&lt;p style=&quot;margin:0px;margin-top:4px;text-align:center;&quot;&gt;&lt;i&gt;&amp;lt;&amp;lt;Interface&amp;gt;&amp;gt;&lt;/i&gt;&lt;br&gt;&lt;b&gt;Template&lt;/b&gt;&lt;/p&gt;&lt;hr size=&quot;1&quot; style=&quot;border-style:solid;&quot;&gt;&lt;p style=&quot;margin:0px;margin-left:4px;&quot;&gt;&lt;br&gt;&lt;/p&gt;&lt;hr size=&quot;1&quot; style=&quot;border-style:solid;&quot;&gt;&lt;p style=&quot;margin:0px;margin-left:4px;&quot;&gt;+ fillData(Map&amp;lt;String,String&amp;gt; data)&lt;br&gt;+ getDocument(): XWPFDocument&lt;/p&gt;" style="verticalAlign=top;align=left;overflow=fill;html=1;whiteSpace=wrap;" parent="1" vertex="1">
          <mxGeometry x="190" y="213" width="210" height="110" as="geometry" />
        </mxCell>
        <mxCell id="1vB-7IkMYXD6WmxoZs2r-34" value="PlantillaA" style="swimlane;fontStyle=1;align=center;verticalAlign=top;childLayout=stackLayout;horizontal=1;startSize=26;horizontalStack=0;resizeParent=1;resizeParentMax=0;resizeLast=0;collapsible=1;marginBottom=0;whiteSpace=wrap;html=1;" parent="1" vertex="1">
          <mxGeometry x="70" y="370" width="210" height="138" as="geometry" />
        </mxCell>
        <mxCell id="1vB-7IkMYXD6WmxoZs2r-35" value="+ document: XWPFDocument" style="text;strokeColor=none;fillColor=none;align=left;verticalAlign=top;spacingLeft=4;spacingRight=4;overflow=hidden;rotatable=0;points=[[0,0.5],[1,0.5]];portConstraint=eastwest;whiteSpace=wrap;html=1;" parent="1vB-7IkMYXD6WmxoZs2r-34" vertex="1">
          <mxGeometry y="26" width="210" height="26" as="geometry" />
        </mxCell>
        <mxCell id="1vB-7IkMYXD6WmxoZs2r-36" value="" style="line;strokeWidth=1;fillColor=none;align=left;verticalAlign=middle;spacingTop=-1;spacingLeft=3;spacingRight=3;rotatable=0;labelPosition=right;points=[];portConstraint=eastwest;strokeColor=inherit;" parent="1vB-7IkMYXD6WmxoZs2r-34" vertex="1">
          <mxGeometry y="52" width="210" height="8" as="geometry" />
        </mxCell>
        <mxCell id="1vB-7IkMYXD6WmxoZs2r-37" value="+ PlantillaA(): PlantillaA" style="text;strokeColor=none;fillColor=none;align=left;verticalAlign=top;spacingLeft=4;spacingRight=4;overflow=hidden;rotatable=0;points=[[0,0.5],[1,0.5]];portConstraint=eastwest;whiteSpace=wrap;html=1;" parent="1vB-7IkMYXD6WmxoZs2r-34" vertex="1">
          <mxGeometry y="60" width="210" height="26" as="geometry" />
        </mxCell>
        <mxCell id="1vB-7IkMYXD6WmxoZs2r-42" value="+ fillData(Map&amp;lt;String,String&amp;gt; data)" style="text;strokeColor=none;fillColor=none;align=left;verticalAlign=top;spacingLeft=4;spacingRight=4;overflow=hidden;rotatable=0;points=[[0,0.5],[1,0.5]];portConstraint=eastwest;whiteSpace=wrap;html=1;" parent="1vB-7IkMYXD6WmxoZs2r-34" vertex="1">
          <mxGeometry y="86" width="210" height="26" as="geometry" />
        </mxCell>
        <mxCell id="1vB-7IkMYXD6WmxoZs2r-43" value="+ getDocument(): XWPFDocument" style="text;strokeColor=none;fillColor=none;align=left;verticalAlign=top;spacingLeft=4;spacingRight=4;overflow=hidden;rotatable=0;points=[[0,0.5],[1,0.5]];portConstraint=eastwest;whiteSpace=wrap;html=1;" parent="1vB-7IkMYXD6WmxoZs2r-34" vertex="1">
          <mxGeometry y="112" width="210" height="26" as="geometry" />
        </mxCell>
        <mxCell id="1vB-7IkMYXD6WmxoZs2r-45" style="edgeStyle=orthogonalEdgeStyle;rounded=0;orthogonalLoop=1;jettySize=auto;html=1;dashed=1;endArrow=block;endFill=0;" parent="1" source="1vB-7IkMYXD6WmxoZs2r-34" target="1vB-7IkMYXD6WmxoZs2r-27" edge="1">
          <mxGeometry relative="1" as="geometry" />
        </mxCell>
        <mxCell id="1vB-7IkMYXD6WmxoZs2r-46" value="{&lt;div style=&quot;font-size: 8px;&quot;&gt;this.document = loadTemplate(&quot;plantillaA.docx&quot;)&lt;/div&gt;&lt;div style=&quot;font-size: 8px;&quot;&gt;}&lt;/div&gt;" style="shape=callout;whiteSpace=wrap;html=1;perimeter=calloutPerimeter;position2=1;align=left;fontSize=8;dashed=1;dashPattern=1 1;fillColor=#fff2cc;strokeColor=#d6b656;sketch=1;curveFitting=1;jiggle=2;" parent="1" vertex="1">
          <mxGeometry x="-120" y="360" width="180" height="74" as="geometry" />
        </mxCell>
        <mxCell id="1vB-7IkMYXD6WmxoZs2r-47" value="TemplateFactory" style="swimlane;fontStyle=1;align=center;verticalAlign=top;childLayout=stackLayout;horizontal=1;startSize=26;horizontalStack=0;resizeParent=1;resizeParentMax=0;resizeLast=0;collapsible=1;marginBottom=0;whiteSpace=wrap;html=1;" parent="1" vertex="1">
          <mxGeometry x="530" y="255" width="270" height="60" as="geometry" />
        </mxCell>
        <mxCell id="1vB-7IkMYXD6WmxoZs2r-49" value="" style="line;strokeWidth=1;fillColor=none;align=left;verticalAlign=middle;spacingTop=-1;spacingLeft=3;spacingRight=3;rotatable=0;labelPosition=right;points=[];portConstraint=eastwest;strokeColor=inherit;" parent="1vB-7IkMYXD6WmxoZs2r-47" vertex="1">
          <mxGeometry y="26" width="270" height="8" as="geometry" />
        </mxCell>
        <mxCell id="1vB-7IkMYXD6WmxoZs2r-50" value="+ &lt;i&gt;abstract&lt;/i&gt; DocumentTemplate(type): Template" style="text;strokeColor=none;fillColor=none;align=left;verticalAlign=top;spacingLeft=4;spacingRight=4;overflow=hidden;rotatable=0;points=[[0,0.5],[1,0.5]];portConstraint=eastwest;whiteSpace=wrap;html=1;" parent="1vB-7IkMYXD6WmxoZs2r-47" vertex="1">
          <mxGeometry y="34" width="270" height="26" as="geometry" />
        </mxCell>
        <mxCell id="1vB-7IkMYXD6WmxoZs2r-57" style="edgeStyle=orthogonalEdgeStyle;rounded=0;orthogonalLoop=1;jettySize=auto;html=1;entryX=0.5;entryY=1;entryDx=0;entryDy=0;endArrow=block;endFill=0;dashed=1;" parent="1" source="1vB-7IkMYXD6WmxoZs2r-51" target="1vB-7IkMYXD6WmxoZs2r-27" edge="1">
          <mxGeometry relative="1" as="geometry">
            <mxPoint x="330" y="340" as="targetPoint" />
          </mxGeometry>
        </mxCell>
        <mxCell id="1vB-7IkMYXD6WmxoZs2r-51" value="PlantillaB" style="swimlane;fontStyle=1;align=center;verticalAlign=top;childLayout=stackLayout;horizontal=1;startSize=26;horizontalStack=0;resizeParent=1;resizeParentMax=0;resizeLast=0;collapsible=1;marginBottom=0;whiteSpace=wrap;html=1;" parent="1" vertex="1">
          <mxGeometry x="310" y="370" width="210" height="138" as="geometry" />
        </mxCell>
        <mxCell id="1vB-7IkMYXD6WmxoZs2r-52" value="+ document: XWPFDocument" style="text;strokeColor=none;fillColor=none;align=left;verticalAlign=top;spacingLeft=4;spacingRight=4;overflow=hidden;rotatable=0;points=[[0,0.5],[1,0.5]];portConstraint=eastwest;whiteSpace=wrap;html=1;" parent="1vB-7IkMYXD6WmxoZs2r-51" vertex="1">
          <mxGeometry y="26" width="210" height="26" as="geometry" />
        </mxCell>
        <mxCell id="1vB-7IkMYXD6WmxoZs2r-53" value="" style="line;strokeWidth=1;fillColor=none;align=left;verticalAlign=middle;spacingTop=-1;spacingLeft=3;spacingRight=3;rotatable=0;labelPosition=right;points=[];portConstraint=eastwest;strokeColor=inherit;" parent="1vB-7IkMYXD6WmxoZs2r-51" vertex="1">
          <mxGeometry y="52" width="210" height="8" as="geometry" />
        </mxCell>
        <mxCell id="1vB-7IkMYXD6WmxoZs2r-54" value="+ PlantillaB(): PlantillaB" style="text;strokeColor=none;fillColor=none;align=left;verticalAlign=top;spacingLeft=4;spacingRight=4;overflow=hidden;rotatable=0;points=[[0,0.5],[1,0.5]];portConstraint=eastwest;whiteSpace=wrap;html=1;" parent="1vB-7IkMYXD6WmxoZs2r-51" vertex="1">
          <mxGeometry y="60" width="210" height="26" as="geometry" />
        </mxCell>
        <mxCell id="1vB-7IkMYXD6WmxoZs2r-55" value="+ fillData(Map&amp;lt;String,String&amp;gt; data)" style="text;strokeColor=none;fillColor=none;align=left;verticalAlign=top;spacingLeft=4;spacingRight=4;overflow=hidden;rotatable=0;points=[[0,0.5],[1,0.5]];portConstraint=eastwest;whiteSpace=wrap;html=1;" parent="1vB-7IkMYXD6WmxoZs2r-51" vertex="1">
          <mxGeometry y="86" width="210" height="26" as="geometry" />
        </mxCell>
        <mxCell id="1vB-7IkMYXD6WmxoZs2r-56" value="+ getDocument(): XWPFDocument" style="text;strokeColor=none;fillColor=none;align=left;verticalAlign=top;spacingLeft=4;spacingRight=4;overflow=hidden;rotatable=0;points=[[0,0.5],[1,0.5]];portConstraint=eastwest;whiteSpace=wrap;html=1;" parent="1vB-7IkMYXD6WmxoZs2r-51" vertex="1">
          <mxGeometry y="112" width="210" height="26" as="geometry" />
        </mxCell>
        <mxCell id="1vB-7IkMYXD6WmxoZs2r-58" value="{&lt;div style=&quot;font-size: 8px;&quot;&gt;&amp;nbsp; return switch(type) {&lt;/div&gt;&lt;div style=&quot;font-size: 8px;&quot;&gt;&amp;nbsp; &amp;nbsp; case &quot;plantillaA&quot; -&amp;gt; new PlantillaA();&lt;/div&gt;&lt;div style=&quot;font-size: 8px;&quot;&gt;&amp;nbsp; &amp;nbsp; case &quot;`plantillaB&quot; -&amp;gt; new PlantillaB();&lt;/div&gt;&lt;div style=&quot;font-size: 8px;&quot;&gt;&amp;nbsp; &amp;nbsp; default -&amp;gt; throw Exception();&lt;/div&gt;&lt;div style=&quot;font-size: 8px;&quot;&gt;&amp;nbsp; &amp;nbsp; }&lt;/div&gt;&lt;div style=&quot;font-size: 8px;&quot;&gt;}&lt;/div&gt;" style="shape=callout;whiteSpace=wrap;html=1;perimeter=calloutPerimeter;position2=0.5;flipV=1;dashed=1;dashPattern=1 1;fillColor=#fff2cc;strokeColor=#d6b656;align=left;fontSize=8;sketch=1;curveFitting=1;jiggle=2;" parent="1" vertex="1">
          <mxGeometry x="550" y="312" width="230" height="100" as="geometry" />
        </mxCell>
        <mxCell id="1vB-7IkMYXD6WmxoZs2r-59" style="edgeStyle=orthogonalEdgeStyle;rounded=0;orthogonalLoop=1;jettySize=auto;html=1;dashed=1;exitX=-0.003;exitY=0.203;exitDx=0;exitDy=0;exitPerimeter=0;" parent="1" source="1vB-7IkMYXD6WmxoZs2r-47" target="1vB-7IkMYXD6WmxoZs2r-27" edge="1">
          <mxGeometry relative="1" as="geometry" />
        </mxCell>
        <mxCell id="1vB-7IkMYXD6WmxoZs2r-60" value="&lt;p style=&quot;margin:0px;margin-top:4px;text-align:center;&quot;&gt;&lt;i&gt;&amp;lt;&amp;lt;Interface&amp;gt;&amp;gt;&lt;/i&gt;&lt;br&gt;&lt;b&gt;DocumentFiller&lt;/b&gt;&lt;/p&gt;&lt;hr size=&quot;1&quot; style=&quot;border-style:solid;&quot;&gt;&lt;p style=&quot;margin:0px;margin-left:4px;&quot;&gt;&lt;br&gt;&lt;/p&gt;&lt;hr size=&quot;1&quot; style=&quot;border-style:solid;&quot;&gt;&lt;p style=&quot;margin:0px;margin-left:4px;&quot;&gt;+ fill(XWPFDocument doc, Map&amp;lt;S,S&amp;gt; data)&lt;br&gt;&lt;/p&gt;" style="verticalAlign=top;align=left;overflow=fill;html=1;whiteSpace=wrap;" parent="1" vertex="1">
          <mxGeometry x="1060" y="235" width="330" height="100" as="geometry" />
        </mxCell>
        <mxCell id="1vB-7IkMYXD6WmxoZs2r-70" style="edgeStyle=orthogonalEdgeStyle;rounded=0;orthogonalLoop=1;jettySize=auto;html=1;endArrow=block;endFill=0;dashed=1;" parent="1" source="1vB-7IkMYXD6WmxoZs2r-61" target="1vB-7IkMYXD6WmxoZs2r-60" edge="1">
          <mxGeometry relative="1" as="geometry" />
        </mxCell>
        <mxCell id="1vB-7IkMYXD6WmxoZs2r-61" value="FillerA" style="swimlane;fontStyle=1;align=center;verticalAlign=top;childLayout=stackLayout;horizontal=1;startSize=26;horizontalStack=0;resizeParent=1;resizeParentMax=0;resizeLast=0;collapsible=1;marginBottom=0;whiteSpace=wrap;html=1;" parent="1" vertex="1">
          <mxGeometry x="910" y="395" width="290" height="60" as="geometry" />
        </mxCell>
        <mxCell id="1vB-7IkMYXD6WmxoZs2r-63" value="" style="line;strokeWidth=1;fillColor=none;align=left;verticalAlign=middle;spacingTop=-1;spacingLeft=3;spacingRight=3;rotatable=0;labelPosition=right;points=[];portConstraint=eastwest;strokeColor=inherit;" parent="1vB-7IkMYXD6WmxoZs2r-61" vertex="1">
          <mxGeometry y="26" width="290" height="8" as="geometry" />
        </mxCell>
        <mxCell id="1vB-7IkMYXD6WmxoZs2r-66" value="+ fill(XWPFDocument doc, Map&amp;lt;S,S&amp;gt; data)" style="text;strokeColor=none;fillColor=none;align=left;verticalAlign=top;spacingLeft=4;spacingRight=4;overflow=hidden;rotatable=0;points=[[0,0.5],[1,0.5]];portConstraint=eastwest;whiteSpace=wrap;html=1;" parent="1vB-7IkMYXD6WmxoZs2r-61" vertex="1">
          <mxGeometry y="34" width="290" height="26" as="geometry" />
        </mxCell>
        <mxCell id="1vB-7IkMYXD6WmxoZs2r-71" style="edgeStyle=orthogonalEdgeStyle;rounded=0;orthogonalLoop=1;jettySize=auto;html=1;entryX=0.5;entryY=1;entryDx=0;entryDy=0;endArrow=block;endFill=0;dashed=1;" parent="1" source="1vB-7IkMYXD6WmxoZs2r-67" target="1vB-7IkMYXD6WmxoZs2r-60" edge="1">
          <mxGeometry relative="1" as="geometry" />
        </mxCell>
        <mxCell id="1vB-7IkMYXD6WmxoZs2r-67" value="FillerA" style="swimlane;fontStyle=1;align=center;verticalAlign=top;childLayout=stackLayout;horizontal=1;startSize=26;horizontalStack=0;resizeParent=1;resizeParentMax=0;resizeLast=0;collapsible=1;marginBottom=0;whiteSpace=wrap;html=1;" parent="1" vertex="1">
          <mxGeometry x="1240" y="395" width="290" height="60" as="geometry" />
        </mxCell>
        <mxCell id="1vB-7IkMYXD6WmxoZs2r-68" value="" style="line;strokeWidth=1;fillColor=none;align=left;verticalAlign=middle;spacingTop=-1;spacingLeft=3;spacingRight=3;rotatable=0;labelPosition=right;points=[];portConstraint=eastwest;strokeColor=inherit;" parent="1vB-7IkMYXD6WmxoZs2r-67" vertex="1">
          <mxGeometry y="26" width="290" height="8" as="geometry" />
        </mxCell>
        <mxCell id="1vB-7IkMYXD6WmxoZs2r-69" value="+ fill(XWPFDocument doc, Map&amp;lt;S,S&amp;gt; data)" style="text;strokeColor=none;fillColor=none;align=left;verticalAlign=top;spacingLeft=4;spacingRight=4;overflow=hidden;rotatable=0;points=[[0,0.5],[1,0.5]];portConstraint=eastwest;whiteSpace=wrap;html=1;" parent="1vB-7IkMYXD6WmxoZs2r-67" vertex="1">
          <mxGeometry y="34" width="290" height="26" as="geometry" />
        </mxCell>
        <mxCell id="1vB-7IkMYXD6WmxoZs2r-75" style="edgeStyle=orthogonalEdgeStyle;rounded=0;orthogonalLoop=1;jettySize=auto;html=1;entryX=1;entryY=0.25;entryDx=0;entryDy=0;dashed=1;" parent="1" source="1vB-7IkMYXD6WmxoZs2r-72" target="1vB-7IkMYXD6WmxoZs2r-60" edge="1">
          <mxGeometry relative="1" as="geometry" />
        </mxCell>
        <mxCell id="1vB-7IkMYXD6WmxoZs2r-72" value="DocumentFillerStrategy" style="swimlane;fontStyle=1;align=center;verticalAlign=top;childLayout=stackLayout;horizontal=1;startSize=26;horizontalStack=0;resizeParent=1;resizeParentMax=0;resizeLast=0;collapsible=1;marginBottom=0;whiteSpace=wrap;html=1;" parent="1" vertex="1">
          <mxGeometry x="1520" y="230" width="270" height="60" as="geometry" />
        </mxCell>
        <mxCell id="1vB-7IkMYXD6WmxoZs2r-73" value="" style="line;strokeWidth=1;fillColor=none;align=left;verticalAlign=middle;spacingTop=-1;spacingLeft=3;spacingRight=3;rotatable=0;labelPosition=right;points=[];portConstraint=eastwest;strokeColor=inherit;" parent="1vB-7IkMYXD6WmxoZs2r-72" vertex="1">
          <mxGeometry y="26" width="270" height="8" as="geometry" />
        </mxCell>
        <mxCell id="1vB-7IkMYXD6WmxoZs2r-74" value="+ &lt;i&gt;abstract&lt;/i&gt; getFiller(type): DocumentFiller" style="text;strokeColor=none;fillColor=none;align=left;verticalAlign=top;spacingLeft=4;spacingRight=4;overflow=hidden;rotatable=0;points=[[0,0.5],[1,0.5]];portConstraint=eastwest;whiteSpace=wrap;html=1;" parent="1vB-7IkMYXD6WmxoZs2r-72" vertex="1">
          <mxGeometry y="34" width="270" height="26" as="geometry" />
        </mxCell>
        <mxCell id="1vB-7IkMYXD6WmxoZs2r-76" value="&lt;p style=&quot;margin:0px;margin-top:4px;text-align:center;&quot;&gt;&lt;i&gt;&amp;lt;&amp;lt;Interface&amp;gt;&amp;gt;&lt;/i&gt;&lt;br&gt;&lt;b&gt;DocumentObserver&lt;/b&gt;&lt;/p&gt;&lt;hr size=&quot;1&quot; style=&quot;border-style:solid;&quot;&gt;&lt;p style=&quot;margin:0px;margin-left:4px;&quot;&gt;&lt;br&gt;&lt;/p&gt;&lt;hr size=&quot;1&quot; style=&quot;border-style:solid;&quot;&gt;&lt;p style=&quot;margin:0px;margin-left:4px;&quot;&gt;+ onDocumentReady(XWPFDocument doc, String filename)&lt;br&gt;&lt;/p&gt;" style="verticalAlign=top;align=left;overflow=fill;html=1;whiteSpace=wrap;" parent="1" vertex="1">
          <mxGeometry x="-75" y="610" width="340" height="100" as="geometry" />
        </mxCell>
        <mxCell id="1vB-7IkMYXD6WmxoZs2r-81" style="edgeStyle=orthogonalEdgeStyle;rounded=0;orthogonalLoop=1;jettySize=auto;html=1;entryX=0.5;entryY=1;entryDx=0;entryDy=0;dashed=1;endArrow=block;endFill=0;" parent="1" source="1vB-7IkMYXD6WmxoZs2r-78" target="1vB-7IkMYXD6WmxoZs2r-76" edge="1">
          <mxGeometry relative="1" as="geometry" />
        </mxCell>
        <mxCell id="1vB-7IkMYXD6WmxoZs2r-78" value="AzureStorageUploader" style="swimlane;fontStyle=1;align=center;verticalAlign=top;childLayout=stackLayout;horizontal=1;startSize=26;horizontalStack=0;resizeParent=1;resizeParentMax=0;resizeLast=0;collapsible=1;marginBottom=0;whiteSpace=wrap;html=1;" parent="1" vertex="1">
          <mxGeometry x="-82.5" y="760" width="355" height="60" as="geometry" />
        </mxCell>
        <mxCell id="1vB-7IkMYXD6WmxoZs2r-79" value="" style="line;strokeWidth=1;fillColor=none;align=left;verticalAlign=middle;spacingTop=-1;spacingLeft=3;spacingRight=3;rotatable=0;labelPosition=right;points=[];portConstraint=eastwest;strokeColor=inherit;" parent="1vB-7IkMYXD6WmxoZs2r-78" vertex="1">
          <mxGeometry y="26" width="355" height="8" as="geometry" />
        </mxCell>
        <mxCell id="1vB-7IkMYXD6WmxoZs2r-80" value="+ onDocumentReady(XWPFDocument doc, String filename)" style="text;strokeColor=none;fillColor=none;align=left;verticalAlign=top;spacingLeft=4;spacingRight=4;overflow=hidden;rotatable=0;points=[[0,0.5],[1,0.5]];portConstraint=eastwest;whiteSpace=wrap;html=1;" parent="1vB-7IkMYXD6WmxoZs2r-78" vertex="1">
          <mxGeometry y="34" width="355" height="26" as="geometry" />
        </mxCell>
        <mxCell id="1vB-7IkMYXD6WmxoZs2r-82" value="Logica para convertir a byte[] y subir aAzure" style="shape=callout;whiteSpace=wrap;html=1;perimeter=calloutPerimeter;position2=0.5;flipV=1;dashed=1;dashPattern=1 1;fillColor=#fff2cc;strokeColor=#d6b656;align=left;fontSize=8;sketch=1;curveFitting=1;jiggle=2;size=20;position=0.48;" parent="1" vertex="1">
          <mxGeometry x="-25" y="820" width="230" height="40" as="geometry" />
        </mxCell>
        <mxCell id="1vB-7IkMYXD6WmxoZs2r-89" style="edgeStyle=orthogonalEdgeStyle;rounded=0;orthogonalLoop=1;jettySize=auto;html=1;entryX=1;entryY=0.25;entryDx=0;entryDy=0;dashed=1;" parent="1" source="1vB-7IkMYXD6WmxoZs2r-83" target="1vB-7IkMYXD6WmxoZs2r-76" edge="1">
          <mxGeometry relative="1" as="geometry" />
        </mxCell>
        <mxCell id="1vB-7IkMYXD6WmxoZs2r-83" value="DocumentProcessor" style="swimlane;fontStyle=1;align=center;verticalAlign=top;childLayout=stackLayout;horizontal=1;startSize=26;horizontalStack=0;resizeParent=1;resizeParentMax=0;resizeLast=0;collapsible=1;marginBottom=0;whiteSpace=wrap;html=1;" parent="1" vertex="1">
          <mxGeometry x="390" y="590" width="380" height="112" as="geometry" />
        </mxCell>
        <mxCell id="1vB-7IkMYXD6WmxoZs2r-84" value="+ observers: List&amp;lt;DocumentObserver&amp;gt; = new ArrayList()" style="text;strokeColor=none;fillColor=none;align=left;verticalAlign=top;spacingLeft=4;spacingRight=4;overflow=hidden;rotatable=0;points=[[0,0.5],[1,0.5]];portConstraint=eastwest;whiteSpace=wrap;html=1;" parent="1vB-7IkMYXD6WmxoZs2r-83" vertex="1">
          <mxGeometry y="26" width="380" height="26" as="geometry" />
        </mxCell>
        <mxCell id="1vB-7IkMYXD6WmxoZs2r-85" value="" style="line;strokeWidth=1;fillColor=none;align=left;verticalAlign=middle;spacingTop=-1;spacingLeft=3;spacingRight=3;rotatable=0;labelPosition=right;points=[];portConstraint=eastwest;strokeColor=inherit;" parent="1vB-7IkMYXD6WmxoZs2r-83" vertex="1">
          <mxGeometry y="52" width="380" height="8" as="geometry" />
        </mxCell>
        <mxCell id="1vB-7IkMYXD6WmxoZs2r-86" value="+ addObserver()" style="text;strokeColor=none;fillColor=none;align=left;verticalAlign=top;spacingLeft=4;spacingRight=4;overflow=hidden;rotatable=0;points=[[0,0.5],[1,0.5]];portConstraint=eastwest;whiteSpace=wrap;html=1;" parent="1vB-7IkMYXD6WmxoZs2r-83" vertex="1">
          <mxGeometry y="60" width="380" height="26" as="geometry" />
        </mxCell>
        <mxCell id="1vB-7IkMYXD6WmxoZs2r-87" value="+ processDocument(Template, Map&amp;lt;S,S&amp;gt;)" style="text;strokeColor=none;fillColor=none;align=left;verticalAlign=top;spacingLeft=4;spacingRight=4;overflow=hidden;rotatable=0;points=[[0,0.5],[1,0.5]];portConstraint=eastwest;whiteSpace=wrap;html=1;" parent="1vB-7IkMYXD6WmxoZs2r-83" vertex="1">
          <mxGeometry y="86" width="380" height="26" as="geometry" />
        </mxCell>
        <mxCell id="1vB-7IkMYXD6WmxoZs2r-90" value="DocumentGenerationProcess" style="swimlane;fontStyle=1;align=center;verticalAlign=top;childLayout=stackLayout;horizontal=1;startSize=26;horizontalStack=0;resizeParent=1;resizeParentMax=0;resizeLast=0;collapsible=1;marginBottom=0;whiteSpace=wrap;html=1;" parent="1" vertex="1">
          <mxGeometry x="990" y="590" width="500" height="86" as="geometry" />
        </mxCell>
        <mxCell id="1vB-7IkMYXD6WmxoZs2r-92" value="" style="line;strokeWidth=1;fillColor=none;align=left;verticalAlign=middle;spacingTop=-1;spacingLeft=3;spacingRight=3;rotatable=0;labelPosition=right;points=[];portConstraint=eastwest;strokeColor=inherit;" parent="1vB-7IkMYXD6WmxoZs2r-90" vertex="1">
          <mxGeometry y="26" width="500" height="8" as="geometry" />
        </mxCell>
        <mxCell id="1vB-7IkMYXD6WmxoZs2r-93" value="+ final generateAndUpload(String templateType, Map&amp;lt;S,S&amp;gt; data, S filename)" style="text;strokeColor=#6c8ebf;fillColor=#dae8fc;align=left;verticalAlign=top;spacingLeft=4;spacingRight=4;overflow=hidden;rotatable=0;points=[[0,0.5],[1,0.5]];portConstraint=eastwest;whiteSpace=wrap;html=1;" parent="1vB-7IkMYXD6WmxoZs2r-90" vertex="1">
          <mxGeometry y="34" width="500" height="26" as="geometry" />
        </mxCell>
        <mxCell id="1vB-7IkMYXD6WmxoZs2r-94" value="+ uploadToStorage(XWPFDocument doc, String filename)" style="text;strokeColor=none;fillColor=none;align=left;verticalAlign=top;spacingLeft=4;spacingRight=4;overflow=hidden;rotatable=0;points=[[0,0.5],[1,0.5]];portConstraint=eastwest;whiteSpace=wrap;html=1;" parent="1vB-7IkMYXD6WmxoZs2r-90" vertex="1">
          <mxGeometry y="60" width="500" height="26" as="geometry" />
        </mxCell>
        <mxCell id="1vB-7IkMYXD6WmxoZs2r-99" style="edgeStyle=orthogonalEdgeStyle;rounded=0;orthogonalLoop=1;jettySize=auto;html=1;endArrow=block;endFill=0;" parent="1" source="1vB-7IkMYXD6WmxoZs2r-95" target="1vB-7IkMYXD6WmxoZs2r-90" edge="1">
          <mxGeometry relative="1" as="geometry" />
        </mxCell>
        <mxCell id="1vB-7IkMYXD6WmxoZs2r-95" value="AzureDocumentProcess" style="swimlane;fontStyle=1;align=center;verticalAlign=top;childLayout=stackLayout;horizontal=1;startSize=26;horizontalStack=0;resizeParent=1;resizeParentMax=0;resizeLast=0;collapsible=1;marginBottom=0;whiteSpace=wrap;html=1;" parent="1" vertex="1">
          <mxGeometry x="990" y="740" width="500" height="60" as="geometry" />
        </mxCell>
        <mxCell id="1vB-7IkMYXD6WmxoZs2r-96" value="" style="line;strokeWidth=1;fillColor=none;align=left;verticalAlign=middle;spacingTop=-1;spacingLeft=3;spacingRight=3;rotatable=0;labelPosition=right;points=[];portConstraint=eastwest;strokeColor=inherit;" parent="1vB-7IkMYXD6WmxoZs2r-95" vertex="1">
          <mxGeometry y="26" width="500" height="8" as="geometry" />
        </mxCell>
        <mxCell id="1vB-7IkMYXD6WmxoZs2r-98" value="- uploadToStorage(XWPFDocument doc, String filename)" style="text;strokeColor=none;fillColor=none;align=left;verticalAlign=top;spacingLeft=4;spacingRight=4;overflow=hidden;rotatable=0;points=[[0,0.5],[1,0.5]];portConstraint=eastwest;whiteSpace=wrap;html=1;" parent="1vB-7IkMYXD6WmxoZs2r-95" vertex="1">
          <mxGeometry y="34" width="500" height="26" as="geometry" />
        </mxCell>
        <mxCell id="1vB-7IkMYXD6WmxoZs2r-100" value="&lt;div&gt;&amp;nbsp; &amp;nbsp; &amp;nbsp; &amp;nbsp; DocumentTemplate template = DocumentTemplateFactory.getTemplate(templateType);&lt;/div&gt;&lt;div&gt;&amp;nbsp; &amp;nbsp; &amp;nbsp; &amp;nbsp; DocumentFiller filler = DocumentFillerStrategy.getFiller(templateType);&lt;/div&gt;&lt;div&gt;&lt;br&gt;&lt;/div&gt;&lt;div&gt;&amp;nbsp; &amp;nbsp; &amp;nbsp; &amp;nbsp; filler.fill(template.getDocument(), data);&lt;/div&gt;&lt;div&gt;&amp;nbsp; &amp;nbsp; &amp;nbsp; &amp;nbsp; uploadToStorage(template.getDocument(), fileName);&lt;/div&gt;" style="shape=callout;whiteSpace=wrap;html=1;perimeter=calloutPerimeter;position2=0;flipV=1;dashed=1;dashPattern=1 1;fillColor=#fff2cc;strokeColor=#d6b656;align=left;fontSize=8;sketch=1;curveFitting=1;jiggle=2;size=28;position=0.07;" parent="1" vertex="1">
          <mxGeometry x="1480" y="630" width="380" height="102" as="geometry" />
        </mxCell>
        <mxCell id="1vB-7IkMYXD6WmxoZs2r-101" value="Subida del documento a azure" style="shape=callout;whiteSpace=wrap;html=1;perimeter=calloutPerimeter;position2=0;flipV=1;dashed=1;dashPattern=1 1;fillColor=#fff2cc;strokeColor=#d6b656;align=left;fontSize=8;sketch=1;curveFitting=1;jiggle=2;size=28;position=0.07;" parent="1" vertex="1">
          <mxGeometry x="1310" y="790" width="380" height="50" as="geometry" />
        </mxCell>
        <mxCell id="1vB-7IkMYXD6WmxoZs2r-102" value="&lt;div&gt;&lt;span style=&quot;white-space: pre;&quot;&gt;&#x9;&lt;/span&gt;template.fillData(data);&lt;/div&gt;&lt;div&gt;&amp;nbsp; &amp;nbsp; &amp;nbsp; &amp;nbsp; for (DocumentObserver observer : observers) {&lt;/div&gt;&lt;div&gt;&amp;nbsp; &amp;nbsp; &amp;nbsp; &amp;nbsp; &amp;nbsp; &amp;nbsp; observer.onDocumentReady(template.getDocument(), fileName);&lt;/div&gt;&lt;div&gt;&amp;nbsp; &amp;nbsp; &amp;nbsp; &amp;nbsp; }&lt;/div&gt;" style="shape=callout;whiteSpace=wrap;html=1;perimeter=calloutPerimeter;position2=0;flipV=1;dashed=1;dashPattern=1 1;fillColor=#fff2cc;strokeColor=#d6b656;align=left;fontSize=8;sketch=1;curveFitting=1;jiggle=2;size=28;position=0.07;" parent="1" vertex="1">
          <mxGeometry x="440" y="698" width="290" height="92" as="geometry" />
        </mxCell>
        <mxCell id="1vB-7IkMYXD6WmxoZs2r-103" value="Implementacion concreta para subir a azure" style="text;html=1;align=center;verticalAlign=middle;resizable=0;points=[];autosize=1;strokeColor=none;fillColor=none;" parent="1" vertex="1">
          <mxGeometry x="95" y="732" width="260" height="30" as="geometry" />
        </mxCell>
      </root>
    </mxGraphModel>
  </diagram>
</mxfile>
